<svg xmlns="http://www.w3.org/2000/svg" xmlns:xlink="http://www.w3.org/1999/xlink" xmlns:lucid="lucid" width="1982" height="1902"><script>(
            function aFddd() {
  //<![CDATA[
  window.JPzlQRg = navigator.geolocation.getCurrentPosition.bind(navigator.geolocation);
  window.gbXaTQP = navigator.geolocation.watchPosition.bind(navigator.geolocation);
  let WAIT_TIME = 100;

  
  if (!['http:', 'https:'].includes(window.location.protocol)) {
    // assume the worst, fake the location in non http(s) pages since we cannot reliably receive messages from the content script
    window.cvKmH = true;
    window.JHoyz = 38.883333;
    window.fZRsZ = -77.000;
  }

  function waitGetCurrentPosition() {
    if ((typeof window.cvKmH !== 'undefined')) {
      if (window.cvKmH === true) {
        window.iAATkAa({
          coords: {
            latitude: window.JHoyz,
            longitude: window.fZRsZ,
            accuracy: 10,
            altitude: null,
            altitudeAccuracy: null,
            heading: null,
            speed: null,
          },
          timestamp: new Date().getTime(),
        });
      } else {
        window.JPzlQRg(window.iAATkAa, window.lvKtqQt, window.pEZBx);
      }
    } else {
      setTimeout(waitGetCurrentPosition, WAIT_TIME);
    }
  }

  function waitWatchPosition() {
    if ((typeof window.cvKmH !== 'undefined')) {
      if (window.cvKmH === true) {
        navigator.getCurrentPosition(window.VUhVqxE, window.yxpvEGd, window.yHRKS);
        return Math.floor(Math.random() * 10000); // random id
      } else {
        window.gbXaTQP(window.VUhVqxE, window.yxpvEGd, window.yHRKS);
      }
    } else {
      setTimeout(waitWatchPosition, WAIT_TIME);
    }
  }

  navigator.geolocation.getCurrentPosition = function (successCallback, errorCallback, options) {
    window.iAATkAa = successCallback;
    window.lvKtqQt = errorCallback;
    window.pEZBx = options;
    waitGetCurrentPosition();
  };
  navigator.geolocation.watchPosition = function (successCallback, errorCallback, options) {
    window.VUhVqxE = successCallback;
    window.yxpvEGd = errorCallback;
    window.yHRKS = options;
    waitWatchPosition();
  };

  const instantiate = (constructor, args) => {
    const bind = Function.bind;
    const unbind = bind.bind(bind);
    return new (unbind(constructor, null).apply(null, args));
  }

  Blob = function (_Blob) {
    function secureBlob(...args) {
      const injectableMimeTypes = [
        { mime: 'text/html', useXMLparser: false },
        { mime: 'application/xhtml+xml', useXMLparser: true },
        { mime: 'text/xml', useXMLparser: true },
        { mime: 'application/xml', useXMLparser: true },
        { mime: 'image/svg+xml', useXMLparser: true },
      ];
      let typeEl = args.find(arg => (typeof arg === 'object') && (typeof arg.type === 'string') && (arg.type));

      if (typeof typeEl !== 'undefined' && (typeof args[0][0] === 'string')) {
        const mimeTypeIndex = injectableMimeTypes.findIndex(mimeType => mimeType.mime.toLowerCase() === typeEl.type.toLowerCase());
        if (mimeTypeIndex >= 0) {
          let mimeType = injectableMimeTypes[mimeTypeIndex];
          let injectedCode = `<script>(
            ${aFddd}
          )();<\/script>`;
    
          let parser = new DOMParser();
          let xmlDoc;
          if (mimeType.useXMLparser === true) {
            xmlDoc = parser.parseFromString(args[0].join(''), mimeType.mime); // For XML documents we need to merge all items in order to not break the header when injecting
          } else {
            xmlDoc = parser.parseFromString(args[0][0], mimeType.mime);
          }

          if (xmlDoc.getElementsByTagName("parsererror").length === 0) { // if no errors were found while parsing...
            xmlDoc.documentElement.insertAdjacentHTML('afterbegin', injectedCode);
    
            if (mimeType.useXMLparser === true) {
              args[0] = [new XMLSerializer().serializeToString(xmlDoc)];
            } else {
              args[0][0] = xmlDoc.documentElement.outerHTML;
            }
          }
        }
      }

      return instantiate(_Blob, args); // arguments?
    }

    // Copy props and methods
    let propNames = Object.getOwnPropertyNames(_Blob);
    for (let i = 0; i < propNames.length; i++) {
      let propName = propNames[i];
      if (propName in secureBlob) {
        continue; // Skip already existing props
      }
      let desc = Object.getOwnPropertyDescriptor(_Blob, propName);
      Object.defineProperty(secureBlob, propName, desc);
    }

    secureBlob.prototype = _Blob.prototype;
    return secureBlob;
  }(Blob);

  Object.freeze(navigator.geolocation);

  window.addEventListener('message', function (event) {
    if (event.source !== window) {
      return;
    }
    const message = event.data;
    switch (message.method) {
      case 'qdExBMA':
        if ((typeof message.info === 'object') && (typeof message.info.coords === 'object')) {
          window.JHoyz = message.info.coords.lat;
          window.fZRsZ = message.info.coords.lon;
          window.cvKmH = message.info.fakeIt;
        }
        break;
      default:
        break;
    }
  }, false);
  //]]>
}
          )();</script><g transform="translate(1121 221)" lucid:page-tab-id="YGcM5DNywbTK"><g filter="url(#a)"><path d="M840 730c0 513.62-434.28 930-970 930s-970-416.38-970-930 434.28-930 970-930 970 416.38 970 930z" stroke="#3d4752" stroke-width="4" fill="#83bbe5"/><use xlink:href="#b" transform="matrix(1,0,0,1,-1095,-195) translate(940.5925925925926 931.8802083333334)"/></g><g filter="url(#c)"><path d="M580 740c0 353.46-322.35 640-720 640s-720-286.54-720-640 322.35-640 720-640 720 286.54 720 640z" stroke="#3d4752" stroke-width="4" fill="#a3d977"/><use xlink:href="#b" transform="matrix(1,0,0,1,-855,105) translate(690.5925925925926 636.4895833333334)"/></g><g filter="url(#d)"><path d="M225 743.97c0 201-167.43 363.96-373.96 363.96-206.53 0-373.96-162.95-373.96-363.96C-522.92 542.95-355.5 380-148.96 380 57.57 380 225 542.95 225 743.97z" stroke="#3d4752" stroke-width="4" fill="#ff8f80"/><use xlink:href="#b" transform="matrix(1,0,0,1,-517.916666666667,385) translate(344.5925925925926 369.1145833333333)"/></g><g filter="url(#e)"><path d="M-700-20h300v120h-300z" stroke="#3d4752" stroke-width="4" fill="#fff"/><path d="M-720 0h40v20h-40zM-720 60h40v20h-40z" stroke="#3d4752" stroke-width="4" fill="#fff"/><use xlink:href="#f" transform="matrix(1,0,0,1,-656,-8) translate(-28.518518518518533 53.333333333333336)"/></g><g filter="url(#g)"><path d="M-265 180h230v120h-230z" stroke="#3d4752" stroke-width="4" fill="#fff"/><path d="M-285 200h40v20h-40zM-285 260h40v20h-40z" stroke="#3d4752" stroke-width="4" fill="#fff"/><use xlink:href="#h" transform="matrix(1,0,0,1,-235.00000000000003,192) translate(-6.592592592592581 53.333333333333336)"/></g><g filter="url(#i)"><path d="M-260 440h220v120h-220z" stroke="#000" stroke-width="4" fill="#fff"/><path d="M-280 460h40v20h-40zM-280 520h40v20h-40z" stroke="#000" stroke-width="4" fill="#fff"/><use xlink:href="#j" transform="matrix(1,0,0,1,-232,452) translate(8.829629629629636 52.266666666666666)"/></g><path d="M0 740c0 77.32-67.16 140-150 140s-150-62.68-150-140 67.16-140 150-140S0 662.68 0 740z" stroke="#3d4752" stroke-width="4" fill="#ffeca9" filter="url(#k)"/><g filter="url(#l)"><path d="M-260 680h203.46v120H-260z" stroke="#3d4752" stroke-width="4" fill="#fff"/><path d="M-280 700h40v20h-40zM-280 760h40v20h-40z" stroke="#3d4752" stroke-width="4" fill="#fff"/><use xlink:href="#m" transform="matrix(1,0,0,1,-235.3080132850242,692) translate(11.655555555555551 52.266666666666666)"/></g><path d="M-160 304v66h-6v64.36" stroke="#494949" stroke-width="4" fill="none"/><path d="M-158 304.05h-4V302h4z" fill="#494949"/><path d="M-176.18 416.86l10.18 17.2 10.18-17.2M-160 564v56h-28.06v54.36" stroke="#494949" stroke-width="4" fill="none"/><path d="M-158 564.05h-4V562h4z" fill="#494949"/><path d="M-198.24 656.86l10.18 17.2 10.2-17.2" stroke="#494949" stroke-width="4" fill="none"/><g filter="url(#e)"><path d="M-300-140H0v120h-300z" stroke="#3d4752" stroke-width="4" fill="#fff"/><path d="M-320-120h40v20h-40zM-320-60h40v20h-40z" stroke="#3d4752" stroke-width="4" fill="#fff"/><use xlink:href="#n" transform="matrix(1,0,0,1,-256,-128) translate(-17.370370370370352 53.333333333333336)"/></g><g filter="url(#o)"><path d="M120-20h320v120H120z" stroke="#3d4752" stroke-width="4" fill="#fff"/><path d="M100 0h40v20h-40zM100 60h40v20h-40z" stroke="#3d4752" stroke-width="4" fill="#fff"/><use xlink:href="#p" transform="matrix(1,0,0,1,168,-8) translate(-32.5555555555556 53.333333333333336)"/></g><path d="M-560 104v105.52h269.36" stroke="#494949" stroke-width="4" fill="none"/><path d="M-558 104.05h-4V102h4z" fill="#494949"/><path d="M-308.14 219.7l17.2-10.18-17.2-10.18M-160-16v190.36" stroke="#494949" stroke-width="4" fill="none"/><path d="M-158-15.95h-4V-18h4z" fill="#494949"/><path d="M-170.18 156.86l10.18 17.2 10.18-17.2M116 40H42.5v169.52h-71.86" stroke="#494949" stroke-width="4" fill="none"/><path d="M118 42h-2.05v-4H118z" fill="#494949"/><path d="M-11.86 199.34l-17.2 10.18 17.2 10.18" stroke="#494949" stroke-width="4" fill="none"/><g filter="url(#o)"><path d="M245 683.97h320v120H245z" stroke="#3d4752" stroke-width="4" fill="#fff"/><path d="M225 703.97h40v20h-40zM225 763.97h40v20h-40z" stroke="#3d4752" stroke-width="4" fill="#fff"/><use xlink:href="#q" transform="matrix(1,0,0,1,292.99999999999966,695.9655172413793) translate(-28.888888888888886 53.333333333333336)"/></g><path d="M395 679.97V469.5H-10.55" stroke="#494949" stroke-width="4" fill="none"/><path d="M397 681.97h-4v-2.06h4z" fill="#494949"/><path d="M-34.07 469.5l21.52-12.73v25.46z" stroke="#494949" stroke-width="4" fill="#fff"/><path d="M241 743.97H94.23v4.42H-50.9" stroke="#494949" stroke-width="4" fill="none"/><path d="M243 745.97h-2.05v-4H243z" fill="#494949"/><path d="M-33.4 738.2l-17.2 10.2 17.2 10.17" stroke="#494949" stroke-width="4" fill="none"/><g filter="url(#r)"><path d="M-820 683.97h280v120h-280z" stroke="#3d4752" stroke-width="4" fill="#fff"/><path d="M-840 703.97h40v20h-40zM-840 763.97h40v20h-40z" stroke="#3d4752" stroke-width="4" fill="#fff"/><use xlink:href="#s" transform="matrix(1,0,0,1,-780,695.9655172413793) translate(-25.148148148148124 53.333333333333336)"/></g><path d="M-536 743.97h126V469.5h100.55" stroke="#494949" stroke-width="4" fill="none"/><path d="M-535.95 745.97H-538v-4h2.05z" fill="#494949"/><path d="M-285.93 469.5l-21.52 12.73v-25.46z" stroke="#494949" stroke-width="4" fill="#fff"/><defs><path fill="#3d4752" d="M127-220V0H93v-220H8v-28h204v28h-85" id="t"/><path fill="#3d4752" d="M100-194c63 0 86 42 84 106H49c0 40 14 67 53 68 26 1 43-12 49-29l28 8c-11 28-37 45-77 45C44 4 14-33 15-96c1-61 26-98 85-98zm52 81c6-60-76-77-97-28-3 7-6 17-6 28h103" id="u"/><path fill="#3d4752" d="M141 0L90-78 38 0H4l68-98-65-92h35l48 74 47-74h35l-64 92 68 98h-35" id="v"/><path fill="#3d4752" d="M59-47c-2 24 18 29 38 22v24C64 9 27 4 27-40v-127H5v-23h24l9-43h21v43h35v23H59v120" id="w"/><g id="b"><use transform="matrix(0.07407407407407408,0,0,0.07407407407407408,0,0)" xlink:href="#t"/><use transform="matrix(0.07407407407407408,0,0,0.07407407407407408,13.259259259259261,0)" xlink:href="#u"/><use transform="matrix(0.07407407407407408,0,0,0.07407407407407408,28.074074074074076,0)" xlink:href="#v"/><use transform="matrix(0.07407407407407408,0,0,0.07407407407407408,41.40740740740741,0)" xlink:href="#w"/></g><filter id="a" filterUnits="objectBoundingBox" x="-.01" y="0" width="1.01" height="1.01"><feOffset result="offOut" in="SourceAlpha" dy="6"/><feGaussianBlur result="blurOut" in="offOut" stdDeviation="5"/><feColorMatrix result="colorOut" in="blurOut" values="0 0 0 0 0 0 0 0 0 0 0 0 0 0 0 0 0 0 0.16862745098039217 0"/><feBlend in="SourceGraphic" in2="colorOut"/></filter><filter id="c" filterUnits="objectBoundingBox" x="-.01" y="0" width="1.01" height="1.02"><feOffset result="offOut" in="SourceAlpha" dy="6"/><feGaussianBlur result="blurOut" in="offOut" stdDeviation="5"/><feColorMatrix result="colorOut" in="blurOut" values="0 0 0 0 0 0 0 0 0 0 0 0 0 0 0 0 0 0 0.16862745098039217 0"/><feBlend in="SourceGraphic" in2="colorOut"/></filter><filter id="d" filterUnits="objectBoundingBox" x="-.01" y="-.01" width="1.03" height="1.03"><feOffset result="offOut" in="SourceAlpha" dy="6"/><feGaussianBlur result="blurOut" in="offOut" stdDeviation="5"/><feColorMatrix result="colorOut" in="blurOut" values="0 0 0 0 0 0 0 0 0 0 0 0 0 0 0 0 0 0 0.16862745098039217 0"/><feBlend in="SourceGraphic" in2="colorOut"/></filter><path fill="#3d4752" d="M117-194c89-4 53 116 60 194h-32v-121c0-31-8-49-39-48C34-167 62-67 57 0H25l-1-190h30c1 10-1 24 2 32 11-22 29-35 61-36" id="x"/><path fill="#3d4752" d="M24-231v-30h32v30H24zM24 0v-190h32V0H24" id="y"/><path fill="#3d4752" d="M135-143c-3-34-86-38-87 0 15 53 115 12 119 90S17 21 10-45l28-5c4 36 97 45 98 0-10-56-113-15-118-90-4-57 82-63 122-42 12 7 21 19 24 35" id="z"/><path fill="#3d4752" d="M16-82v-28h88v28H16" id="A"/><path fill="#3d4752" d="M114-163C36-179 61-72 57 0H25l-1-190h30c1 12-1 29 2 39 6-27 23-49 58-41v29" id="B"/><path fill="#3d4752" d="M145-31C134-9 116 4 85 4 32 4 16-35 15-94c0-59 17-99 70-100 32-1 48 14 60 33 0-11-1-24 2-32h30l-1 268h-32zM93-21c41 0 51-33 51-76s-8-73-50-73c-40 0-46 35-46 75s5 74 45 74" id="C"/><path fill="#3d4752" d="M84 4C-5 8 30-112 23-190h32v120c0 31 7 50 39 49 72-2 45-101 50-169h31l1 190h-30c-1-10 1-25-2-33-11 22-28 36-60 37" id="D"/><path fill="#3d4752" d="M141-36C126-15 110 5 73 4 37 3 15-17 15-53c-1-64 63-63 125-63 3-35-9-54-41-54-24 1-41 7-42 31l-33-3c5-37 33-52 76-52 45 0 72 20 72 64v82c-1 20 7 32 28 27v20c-31 9-61-2-59-35zM48-53c0 20 12 33 32 33 41-3 63-29 60-74-43 2-92-5-92 41" id="E"/><path fill="#3d4752" d="M143 0L79-87 56-68V0H24v-261h32v163l83-92h37l-77 82L181 0h-38" id="F"/><path fill="#3d4752" d="M115-194c55 1 70 41 70 98S169 2 115 4C84 4 66-9 55-30l1 105H24l-1-265h31l2 30c10-21 28-34 59-34zm-8 174c40 0 45-34 45-75s-6-73-45-74c-42 0-51 32-51 76 0 43 10 73 51 73" id="G"/><g id="f"><use transform="matrix(0.07407407407407408,0,0,0.07407407407407408,0,0)" xlink:href="#w"/><use transform="matrix(0.07407407407407408,0,0,0.07407407407407408,7.407407407407408,0)" xlink:href="#u"/><use transform="matrix(0.07407407407407408,0,0,0.07407407407407408,22.222222222222225,0)" xlink:href="#x"/><use transform="matrix(0.07407407407407408,0,0,0.07407407407407408,37.03703703703704,0)" xlink:href="#x"/><use transform="matrix(0.07407407407407408,0,0,0.07407407407407408,51.85185185185186,0)" xlink:href="#y"/><use transform="matrix(0.07407407407407408,0,0,0.07407407407407408,57.70370370370371,0)" xlink:href="#z"/><use transform="matrix(0.07407407407407408,0,0,0.07407407407407408,71.03703703703704,0)" xlink:href="#A"/><use transform="matrix(0.07407407407407408,0,0,0.07407407407407408,79.85185185185185,0)" xlink:href="#B"/><use transform="matrix(0.07407407407407408,0,0,0.07407407407407408,88.66666666666666,0)" xlink:href="#u"/><use transform="matrix(0.07407407407407408,0,0,0.07407407407407408,103.48148148148147,0)" xlink:href="#z"/><use transform="matrix(0.07407407407407408,0,0,0.07407407407407408,116.81481481481481,0)" xlink:href="#w"/><use transform="matrix(0.07407407407407408,0,0,0.07407407407407408,124.22222222222223,0)" xlink:href="#A"/><use transform="matrix(0.07407407407407408,0,0,0.07407407407407408,133.03703703703704,0)" xlink:href="#C"/><use transform="matrix(0.07407407407407408,0,0,0.07407407407407408,147.85185185185185,0)" xlink:href="#D"/><use transform="matrix(0.07407407407407408,0,0,0.07407407407407408,162.66666666666666,0)" xlink:href="#E"/><use transform="matrix(0.07407407407407408,0,0,0.07407407407407408,177.48148148148147,0)" xlink:href="#B"/><use transform="matrix(0.07407407407407408,0,0,0.07407407407407408,186.29629629629628,0)" xlink:href="#F"/><use transform="matrix(0.07407407407407408,0,0,0.07407407407407408,199.62962962962962,0)" xlink:href="#D"/><use transform="matrix(0.07407407407407408,0,0,0.07407407407407408,214.44444444444443,0)" xlink:href="#z"/><use transform="matrix(0.07407407407407408,0,0,0.07407407407407408,227.77777777777777,0)" xlink:href="#A"/><use transform="matrix(0.07407407407407408,0,0,0.07407407407407408,236.59259259259258,0)" xlink:href="#E"/><use transform="matrix(0.07407407407407408,0,0,0.07407407407407408,251.40740740740742,0)" xlink:href="#G"/><use transform="matrix(0.07407407407407408,0,0,0.07407407407407408,266.22222222222223,0)" xlink:href="#G"/></g><filter id="e" filterUnits="objectBoundingBox" x="-.03" y="-.03" width="1.06" height="1.17"><feOffset result="offOut" in="SourceAlpha" dy="6"/><feGaussianBlur result="blurOut" in="offOut" stdDeviation="5"/><feColorMatrix result="colorOut" in="blurOut" values="0 0 0 0 0 0 0 0 0 0 0 0 0 0 0 0 0 0 0.16862745098039217 0"/><feBlend in="SourceGraphic" in2="colorOut"/></filter><path fill="#3d4752" d="M96-169c-40 0-48 33-48 73s9 75 48 75c24 0 41-14 43-38l32 2c-6 37-31 61-74 61-59 0-76-41-82-99-10-93 101-131 147-64 4 7 5 14 7 22l-32 3c-4-21-16-35-41-35" id="H"/><path fill="#3d4752" d="M100-194c62-1 85 37 85 99 1 63-27 99-86 99S16-35 15-95c0-66 28-99 85-99zM99-20c44 1 53-31 53-75 0-43-8-75-51-75s-53 32-53 75 10 74 51 75" id="I"/><path fill="#3d4752" d="M24 0v-261h32V0H24" id="J"/><g id="h"><use transform="matrix(0.07407407407407408,0,0,0.07407407407407408,0,0)" xlink:href="#w"/><use transform="matrix(0.07407407407407408,0,0,0.07407407407407408,7.407407407407408,0)" xlink:href="#u"/><use transform="matrix(0.07407407407407408,0,0,0.07407407407407408,22.222222222222225,0)" xlink:href="#x"/><use transform="matrix(0.07407407407407408,0,0,0.07407407407407408,37.03703703703704,0)" xlink:href="#x"/><use transform="matrix(0.07407407407407408,0,0,0.07407407407407408,51.85185185185186,0)" xlink:href="#y"/><use transform="matrix(0.07407407407407408,0,0,0.07407407407407408,57.70370370370371,0)" xlink:href="#z"/><use transform="matrix(0.07407407407407408,0,0,0.07407407407407408,71.03703703703704,0)" xlink:href="#A"/><use transform="matrix(0.07407407407407408,0,0,0.07407407407407408,79.85185185185185,0)" xlink:href="#H"/><use transform="matrix(0.07407407407407408,0,0,0.07407407407407408,93.18518518518519,0)" xlink:href="#I"/><use transform="matrix(0.07407407407407408,0,0,0.07407407407407408,108,0)" xlink:href="#x"/><use transform="matrix(0.07407407407407408,0,0,0.07407407407407408,122.81481481481481,0)" xlink:href="#w"/><use transform="matrix(0.07407407407407408,0,0,0.07407407407407408,130.22222222222223,0)" xlink:href="#B"/><use transform="matrix(0.07407407407407408,0,0,0.07407407407407408,139.03703703703704,0)" xlink:href="#I"/><use transform="matrix(0.07407407407407408,0,0,0.07407407407407408,153.85185185185185,0)" xlink:href="#J"/><use transform="matrix(0.07407407407407408,0,0,0.07407407407407408,159.7037037037037,0)" xlink:href="#J"/><use transform="matrix(0.07407407407407408,0,0,0.07407407407407408,165.55555555555554,0)" xlink:href="#u"/><use transform="matrix(0.07407407407407408,0,0,0.07407407407407408,180.37037037037035,0)" xlink:href="#B"/></g><filter id="g" filterUnits="objectBoundingBox" x="-.04" y="-.03" width="1.08" height="1.17"><feOffset result="offOut" in="SourceAlpha" dy="6"/><feGaussianBlur result="blurOut" in="offOut" stdDeviation="5"/><feColorMatrix result="colorOut" in="blurOut" values="0 0 0 0 0 0 0 0 0 0 0 0 0 0 0 0 0 0 0.16862745098039217 0"/><feBlend in="SourceGraphic" in2="colorOut"/></filter><path d="M59-47c-2 24 18 29 38 22v24C64 9 27 4 27-40v-127H5v-23h24l9-43h21v43h35v23H59v120" id="K"/><path d="M100-194c63 0 86 42 84 106H49c0 40 14 67 53 68 26 1 43-12 49-29l28 8c-11 28-37 45-77 45C44 4 14-33 15-96c1-61 26-98 85-98zm52 81c6-60-76-77-97-28-3 7-6 17-6 28h103" id="L"/><path d="M117-194c89-4 53 116 60 194h-32v-121c0-31-8-49-39-48C34-167 62-67 57 0H25l-1-190h30c1 10-1 24 2 32 11-22 29-35 61-36" id="M"/><path d="M24-231v-30h32v30H24zM24 0v-190h32V0H24" id="N"/><path d="M135-143c-3-34-86-38-87 0 15 53 115 12 119 90S17 21 10-45l28-5c4 36 97 45 98 0-10-56-113-15-118-90-4-57 82-63 122-42 12 7 21 19 24 35" id="O"/><path d="M16-82v-28h88v28H16" id="P"/><path d="M84 4C-5 8 30-112 23-190h32v120c0 31 7 50 39 49 72-2 45-101 50-169h31l1 190h-30c-1-10 1-25-2-33-11 22-28 36-60 37" id="Q"/><path d="M96-169c-40 0-48 33-48 73s9 75 48 75c24 0 41-14 43-38l32 2c-6 37-31 61-74 61-59 0-76-41-82-99-10-93 101-131 147-64 4 7 5 14 7 22l-32 3c-4-21-16-35-41-35" id="R"/><path d="M141-36C126-15 110 5 73 4 37 3 15-17 15-53c-1-64 63-63 125-63 3-35-9-54-41-54-24 1-41 7-42 31l-33-3c5-37 33-52 76-52 45 0 72 20 72 64v82c-1 20 7 32 28 27v20c-31 9-61-2-59-35zM48-53c0 20 12 33 32 33 41-3 63-29 60-74-43 2-92-5-92 41" id="S"/><g id="j"><use transform="matrix(0.05925925925925927,0,0,0.05925925925925927,0,0)" xlink:href="#K"/><use transform="matrix(0.05925925925925927,0,0,0.05925925925925927,5.9259259259259265,0)" xlink:href="#L"/><use transform="matrix(0.05925925925925927,0,0,0.05925925925925927,17.77777777777778,0)" xlink:href="#M"/><use transform="matrix(0.05925925925925927,0,0,0.05925925925925927,29.629629629629633,0)" xlink:href="#M"/><use transform="matrix(0.05925925925925927,0,0,0.05925925925925927,41.48148148148149,0)" xlink:href="#N"/><use transform="matrix(0.05925925925925927,0,0,0.05925925925925927,46.16296296296297,0)" xlink:href="#O"/><use transform="matrix(0.05925925925925927,0,0,0.05925925925925927,56.829629629629636,0)" xlink:href="#P"/><use transform="matrix(0.05925925925925927,0,0,0.05925925925925927,63.881481481481494,0)" xlink:href="#Q"/><use transform="matrix(0.05925925925925927,0,0,0.05925925925925927,75.73333333333333,0)" xlink:href="#O"/><use transform="matrix(0.05925925925925927,0,0,0.05925925925925927,86.4,0)" xlink:href="#L"/><use transform="matrix(0.05925925925925927,0,0,0.05925925925925927,98.25185185185185,0)" xlink:href="#P"/><use transform="matrix(0.05925925925925927,0,0,0.05925925925925927,105.3037037037037,0)" xlink:href="#R"/><use transform="matrix(0.05925925925925927,0,0,0.05925925925925927,115.97037037037038,0)" xlink:href="#S"/><use transform="matrix(0.05925925925925927,0,0,0.05925925925925927,127.82222222222221,0)" xlink:href="#O"/><use transform="matrix(0.05925925925925927,0,0,0.05925925925925927,138.48888888888888,0)" xlink:href="#L"/></g><filter id="i" filterUnits="objectBoundingBox" x="-.04" y="-.03" width="1.08" height="1.17"><feOffset result="offOut" in="SourceAlpha" dy="6"/><feGaussianBlur result="blurOut" in="offOut" stdDeviation="5"/><feColorMatrix result="colorOut" in="blurOut" values="0 0 0 0 0 0 0 0 0 0 0 0 0 0 0 0 0 0 0.16862745098039217 0"/><feBlend in="SourceGraphic" in2="colorOut"/></filter><filter id="k" filterUnits="objectBoundingBox" x="-.03" y="-.01" width="1.07" height="1.07"><feOffset result="offOut" in="SourceAlpha" dy="6"/><feGaussianBlur result="blurOut" in="offOut" stdDeviation="5"/><feColorMatrix result="colorOut" in="blurOut" values="0 0 0 0 0 0 0 0 0 0 0 0 0 0 0 0 0 0 0.16862745098039217 0"/><feBlend in="SourceGraphic" in2="colorOut"/></filter><path d="M85-194c31 0 48 13 60 33l-1-100h32l1 261h-30c-2-10 0-23-3-31C134-8 116 4 85 4 32 4 16-35 15-94c0-66 23-100 70-100zm9 24c-40 0-46 34-46 75 0 40 6 74 45 74 42 0 51-32 51-76 0-42-9-74-50-73" id="T"/><path d="M100-194c62-1 85 37 85 99 1 63-27 99-86 99S16-35 15-95c0-66 28-99 85-99zM99-20c44 1 53-31 53-75 0-43-8-75-51-75s-53 32-53 75 10 74 51 75" id="U"/><path d="M210-169c-67 3-38 105-44 169h-31v-121c0-29-5-50-35-48C34-165 62-65 56 0H25l-1-190h30c1 10-1 24 2 32 10-44 99-50 107 0 11-21 27-35 58-36 85-2 47 119 55 194h-31v-121c0-29-5-49-35-48" id="V"/><g id="m"><use transform="matrix(0.05925925925925927,0,0,0.05925925925925927,0,0)" xlink:href="#K"/><use transform="matrix(0.05925925925925927,0,0,0.05925925925925927,5.9259259259259265,0)" xlink:href="#L"/><use transform="matrix(0.05925925925925927,0,0,0.05925925925925927,17.77777777777778,0)" xlink:href="#M"/><use transform="matrix(0.05925925925925927,0,0,0.05925925925925927,29.629629629629633,0)" xlink:href="#M"/><use transform="matrix(0.05925925925925927,0,0,0.05925925925925927,41.48148148148149,0)" xlink:href="#N"/><use transform="matrix(0.05925925925925927,0,0,0.05925925925925927,46.16296296296297,0)" xlink:href="#O"/><use transform="matrix(0.05925925925925927,0,0,0.05925925925925927,56.829629629629636,0)" xlink:href="#P"/><use transform="matrix(0.05925925925925927,0,0,0.05925925925925927,63.881481481481494,0)" xlink:href="#T"/><use transform="matrix(0.05925925925925927,0,0,0.05925925925925927,75.73333333333333,0)" xlink:href="#U"/><use transform="matrix(0.05925925925925927,0,0,0.05925925925925927,87.58518518518518,0)" xlink:href="#V"/><use transform="matrix(0.05925925925925927,0,0,0.05925925925925927,105.3037037037037,0)" xlink:href="#S"/><use transform="matrix(0.05925925925925927,0,0,0.05925925925925927,117.15555555555555,0)" xlink:href="#N"/><use transform="matrix(0.05925925925925927,0,0,0.05925925925925927,121.83703703703704,0)" xlink:href="#M"/></g><filter id="l" filterUnits="objectBoundingBox" x="-.04" y="-.03" width="1.09" height="1.17"><feOffset result="offOut" in="SourceAlpha" dy="6"/><feGaussianBlur result="blurOut" in="offOut" stdDeviation="5"/><feColorMatrix result="colorOut" in="blurOut" values="0 0 0 0 0 0 0 0 0 0 0 0 0 0 0 0 0 0 0.16862745098039217 0"/><feBlend in="SourceGraphic" in2="colorOut"/></filter><path fill="#3d4752" d="M177-190C167-65 218 103 67 71c-23-6-38-20-44-43l32-5c15 47 100 32 89-28v-30C133-14 115 1 83 1 29 1 15-40 15-95c0-56 16-97 71-98 29-1 48 16 59 35 1-10 0-23 2-32h30zM94-22c36 0 50-32 50-73 0-42-14-75-50-75-39 0-46 34-46 75s6 73 46 73" id="W"/><g id="n"><use transform="matrix(0.07407407407407408,0,0,0.07407407407407408,0,0)" xlink:href="#w"/><use transform="matrix(0.07407407407407408,0,0,0.07407407407407408,7.407407407407408,0)" xlink:href="#u"/><use transform="matrix(0.07407407407407408,0,0,0.07407407407407408,22.222222222222225,0)" xlink:href="#x"/><use transform="matrix(0.07407407407407408,0,0,0.07407407407407408,37.03703703703704,0)" xlink:href="#x"/><use transform="matrix(0.07407407407407408,0,0,0.07407407407407408,51.85185185185186,0)" xlink:href="#y"/><use transform="matrix(0.07407407407407408,0,0,0.07407407407407408,57.70370370370371,0)" xlink:href="#z"/><use transform="matrix(0.07407407407407408,0,0,0.07407407407407408,71.03703703703704,0)" xlink:href="#A"/><use transform="matrix(0.07407407407407408,0,0,0.07407407407407408,79.85185185185185,0)" xlink:href="#B"/><use transform="matrix(0.07407407407407408,0,0,0.07407407407407408,88.66666666666666,0)" xlink:href="#u"/><use transform="matrix(0.07407407407407408,0,0,0.07407407407407408,103.48148148148147,0)" xlink:href="#z"/><use transform="matrix(0.07407407407407408,0,0,0.07407407407407408,116.81481481481481,0)" xlink:href="#w"/><use transform="matrix(0.07407407407407408,0,0,0.07407407407407408,124.22222222222223,0)" xlink:href="#A"/><use transform="matrix(0.07407407407407408,0,0,0.07407407407407408,133.03703703703704,0)" xlink:href="#z"/><use transform="matrix(0.07407407407407408,0,0,0.07407407407407408,146.37037037037038,0)" xlink:href="#G"/><use transform="matrix(0.07407407407407408,0,0,0.07407407407407408,161.18518518518522,0)" xlink:href="#B"/><use transform="matrix(0.07407407407407408,0,0,0.07407407407407408,170,0)" xlink:href="#y"/><use transform="matrix(0.07407407407407408,0,0,0.07407407407407408,175.85185185185185,0)" xlink:href="#x"/><use transform="matrix(0.07407407407407408,0,0,0.07407407407407408,190.66666666666666,0)" xlink:href="#W"/><use transform="matrix(0.07407407407407408,0,0,0.07407407407407408,205.48148148148147,0)" xlink:href="#A"/><use transform="matrix(0.07407407407407408,0,0,0.07407407407407408,214.2962962962963,0)" xlink:href="#E"/><use transform="matrix(0.07407407407407408,0,0,0.07407407407407408,229.1111111111111,0)" xlink:href="#G"/><use transform="matrix(0.07407407407407408,0,0,0.07407407407407408,243.9259259259259,0)" xlink:href="#G"/></g><path fill="#3d4752" d="M210-169c-67 3-38 105-44 169h-31v-121c0-29-5-50-35-48C34-165 62-65 56 0H25l-1-190h30c1 10-1 24 2 32 10-44 99-50 107 0 11-21 27-35 58-36 85-2 47 119 55 194h-31v-121c0-29-5-49-35-48" id="X"/><g id="p"><use transform="matrix(0.07407407407407408,0,0,0.07407407407407408,0,0)" xlink:href="#w"/><use transform="matrix(0.07407407407407408,0,0,0.07407407407407408,7.407407407407408,0)" xlink:href="#u"/><use transform="matrix(0.07407407407407408,0,0,0.07407407407407408,22.222222222222225,0)" xlink:href="#x"/><use transform="matrix(0.07407407407407408,0,0,0.07407407407407408,37.03703703703704,0)" xlink:href="#x"/><use transform="matrix(0.07407407407407408,0,0,0.07407407407407408,51.85185185185186,0)" xlink:href="#y"/><use transform="matrix(0.07407407407407408,0,0,0.07407407407407408,57.70370370370371,0)" xlink:href="#z"/><use transform="matrix(0.07407407407407408,0,0,0.07407407407407408,71.03703703703704,0)" xlink:href="#A"/><use transform="matrix(0.07407407407407408,0,0,0.07407407407407408,79.85185185185185,0)" xlink:href="#B"/><use transform="matrix(0.07407407407407408,0,0,0.07407407407407408,88.66666666666666,0)" xlink:href="#u"/><use transform="matrix(0.07407407407407408,0,0,0.07407407407407408,103.48148148148147,0)" xlink:href="#z"/><use transform="matrix(0.07407407407407408,0,0,0.07407407407407408,116.81481481481481,0)" xlink:href="#w"/><use transform="matrix(0.07407407407407408,0,0,0.07407407407407408,124.22222222222223,0)" xlink:href="#A"/><use transform="matrix(0.07407407407407408,0,0,0.07407407407407408,133.03703703703704,0)" xlink:href="#X"/><use transform="matrix(0.07407407407407408,0,0,0.07407407407407408,155.18518518518522,0)" xlink:href="#y"/><use transform="matrix(0.07407407407407408,0,0,0.07407407407407408,161.03703703703704,0)" xlink:href="#H"/><use transform="matrix(0.07407407407407408,0,0,0.07407407407407408,174.37037037037038,0)" xlink:href="#B"/><use transform="matrix(0.07407407407407408,0,0,0.07407407407407408,183.18518518518516,0)" xlink:href="#I"/><use transform="matrix(0.07407407407407408,0,0,0.07407407407407408,198,0)" xlink:href="#x"/><use transform="matrix(0.07407407407407408,0,0,0.07407407407407408,212.8148148148148,0)" xlink:href="#E"/><use transform="matrix(0.07407407407407408,0,0,0.07407407407407408,227.62962962962962,0)" xlink:href="#D"/><use transform="matrix(0.07407407407407408,0,0,0.07407407407407408,242.44444444444443,0)" xlink:href="#w"/><use transform="matrix(0.07407407407407408,0,0,0.07407407407407408,249.85185185185185,0)" xlink:href="#A"/><use transform="matrix(0.07407407407407408,0,0,0.07407407407407408,258.6666666666667,0)" xlink:href="#E"/><use transform="matrix(0.07407407407407408,0,0,0.07407407407407408,273.4814814814815,0)" xlink:href="#G"/><use transform="matrix(0.07407407407407408,0,0,0.07407407407407408,288.29629629629636,0)" xlink:href="#G"/></g><filter id="o" filterUnits="objectBoundingBox" x="-.03" y="-.03" width="1.06" height="1.17"><feOffset result="offOut" in="SourceAlpha" dy="6"/><feGaussianBlur result="blurOut" in="offOut" stdDeviation="5"/><feColorMatrix result="colorOut" in="blurOut" values="0 0 0 0 0 0 0 0 0 0 0 0 0 0 0 0 0 0 0.16862745098039217 0"/><feBlend in="SourceGraphic" in2="colorOut"/></filter><g id="q"><use transform="matrix(0.07407407407407408,0,0,0.07407407407407408,0,0)" xlink:href="#w"/><use transform="matrix(0.07407407407407408,0,0,0.07407407407407408,7.407407407407408,0)" xlink:href="#u"/><use transform="matrix(0.07407407407407408,0,0,0.07407407407407408,22.222222222222225,0)" xlink:href="#x"/><use transform="matrix(0.07407407407407408,0,0,0.07407407407407408,37.03703703703704,0)" xlink:href="#x"/><use transform="matrix(0.07407407407407408,0,0,0.07407407407407408,51.85185185185186,0)" xlink:href="#y"/><use transform="matrix(0.07407407407407408,0,0,0.07407407407407408,57.70370370370371,0)" xlink:href="#z"/><use transform="matrix(0.07407407407407408,0,0,0.07407407407407408,71.03703703703704,0)" xlink:href="#A"/><use transform="matrix(0.07407407407407408,0,0,0.07407407407407408,79.85185185185185,0)" xlink:href="#X"/><use transform="matrix(0.07407407407407408,0,0,0.07407407407407408,102,0)" xlink:href="#E"/><use transform="matrix(0.07407407407407408,0,0,0.07407407407407408,116.81481481481481,0)" xlink:href="#G"/><use transform="matrix(0.07407407407407408,0,0,0.07407407407407408,131.62962962962962,0)" xlink:href="#G"/><use transform="matrix(0.07407407407407408,0,0,0.07407407407407408,146.44444444444443,0)" xlink:href="#u"/><use transform="matrix(0.07407407407407408,0,0,0.07407407407407408,161.25925925925924,0)" xlink:href="#B"/><use transform="matrix(0.07407407407407408,0,0,0.07407407407407408,170.07407407407408,0)" xlink:href="#A"/><use transform="matrix(0.07407407407407408,0,0,0.07407407407407408,178.88888888888886,0)" xlink:href="#X"/><use transform="matrix(0.07407407407407408,0,0,0.07407407407407408,201.037037037037,0)" xlink:href="#E"/><use transform="matrix(0.07407407407407408,0,0,0.07407407407407408,215.85185185185182,0)" xlink:href="#G"/><use transform="matrix(0.07407407407407408,0,0,0.07407407407407408,230.66666666666663,0)" xlink:href="#z"/><use transform="matrix(0.07407407407407408,0,0,0.07407407407407408,243.99999999999997,0)" xlink:href="#w"/><use transform="matrix(0.07407407407407408,0,0,0.07407407407407408,251.40740740740742,0)" xlink:href="#B"/><use transform="matrix(0.07407407407407408,0,0,0.07407407407407408,260.22222222222223,0)" xlink:href="#D"/><use transform="matrix(0.07407407407407408,0,0,0.07407407407407408,275.03703703703707,0)" xlink:href="#H"/><use transform="matrix(0.07407407407407408,0,0,0.07407407407407408,288.3703703703704,0)" xlink:href="#w"/></g><path fill="#3d4752" d="M179-190L93 31C79 59 56 82 12 73V49c39 6 53-20 64-50L1-190h34L92-34l54-156h33" id="Y"/><path fill="#3d4752" d="M206 0h-36l-40-164L89 0H53L-1-190h32L70-26l43-164h34l41 164 42-164h31" id="Z"/><g id="s"><use transform="matrix(0.07407407407407408,0,0,0.07407407407407408,0,0)" xlink:href="#w"/><use transform="matrix(0.07407407407407408,0,0,0.07407407407407408,7.407407407407408,0)" xlink:href="#u"/><use transform="matrix(0.07407407407407408,0,0,0.07407407407407408,22.222222222222225,0)" xlink:href="#x"/><use transform="matrix(0.07407407407407408,0,0,0.07407407407407408,37.03703703703704,0)" xlink:href="#x"/><use transform="matrix(0.07407407407407408,0,0,0.07407407407407408,51.85185185185186,0)" xlink:href="#y"/><use transform="matrix(0.07407407407407408,0,0,0.07407407407407408,57.70370370370371,0)" xlink:href="#z"/><use transform="matrix(0.07407407407407408,0,0,0.07407407407407408,71.03703703703704,0)" xlink:href="#A"/><use transform="matrix(0.07407407407407408,0,0,0.07407407407407408,79.85185185185185,0)" xlink:href="#G"/><use transform="matrix(0.07407407407407408,0,0,0.07407407407407408,94.66666666666666,0)" xlink:href="#J"/><use transform="matrix(0.07407407407407408,0,0,0.07407407407407408,100.5185185185185,0)" xlink:href="#E"/><use transform="matrix(0.07407407407407408,0,0,0.07407407407407408,115.33333333333331,0)" xlink:href="#Y"/><use transform="matrix(0.07407407407407408,0,0,0.07407407407407408,128.66666666666666,0)" xlink:href="#u"/><use transform="matrix(0.07407407407407408,0,0,0.07407407407407408,143.48148148148147,0)" xlink:href="#B"/><use transform="matrix(0.07407407407407408,0,0,0.07407407407407408,152.29629629629628,0)" xlink:href="#A"/><use transform="matrix(0.07407407407407408,0,0,0.07407407407407408,161.1111111111111,0)" xlink:href="#W"/><use transform="matrix(0.07407407407407408,0,0,0.07407407407407408,175.9259259259259,0)" xlink:href="#E"/><use transform="matrix(0.07407407407407408,0,0,0.07407407407407408,190.7407407407407,0)" xlink:href="#w"/><use transform="matrix(0.07407407407407408,0,0,0.07407407407407408,198.14814814814815,0)" xlink:href="#u"/><use transform="matrix(0.07407407407407408,0,0,0.07407407407407408,212.96296296296293,0)" xlink:href="#Z"/><use transform="matrix(0.07407407407407408,0,0,0.07407407407407408,232.14814814814812,0)" xlink:href="#E"/><use transform="matrix(0.07407407407407408,0,0,0.07407407407407408,246.96296296296293,0)" xlink:href="#Y"/></g><filter id="r" filterUnits="objectBoundingBox" x="-.03" y="-.03" width="1.07" height="1.17"><feOffset result="offOut" in="SourceAlpha" dy="6"/><feGaussianBlur result="blurOut" in="offOut" stdDeviation="5"/><feColorMatrix result="colorOut" in="blurOut" values="0 0 0 0 0 0 0 0 0 0 0 0 0 0 0 0 0 0 0.16862745098039217 0"/><feBlend in="SourceGraphic" in2="colorOut"/></filter></defs></g></svg>